<?xml version="1.0" standalone="no"?>
<!DOCTYPE svg PUBLIC "-//W3C//DTD SVG 20010904//EN"
 "http://www.w3.org/TR/2001/REC-SVG-20010904/DTD/svg10.dtd">
<svg version="1.0" xmlns="http://www.w3.org/2000/svg"
 width="512.000000pt" height="512.000000pt" viewBox="0 0 512.000000 512.000000"
 preserveAspectRatio="xMidYMid meet">

<g transform="translate(0.000000,512.000000) scale(0.100000,-0.100000)"
fill="#000000" stroke="none">
<path d="M683 4786 c-170 -41 -301 -169 -345 -335 -16 -61 -17 -181 -17 -1563
-1 -1056 2 -1513 10 -1550 38 -182 185 -329 367 -367 34 -7 210 -11 495 -11
416 0 445 2 485 20 108 49 108 231 0 280 -40 18 -69 20 -478 20 -409 0 -438 2
-478 20 -33 15 -47 29 -62 62 -18 38 -20 67 -20 268 l0 225 320 320 320 319
202 -201 c171 -170 209 -202 241 -208 91 -17 75 -30 554 448 l442 441 124
-121 c132 -130 156 -143 233 -129 47 9 111 73 120 120 15 84 7 96 -204 308
-167 167 -203 197 -235 203 -91 17 -75 30 -554 -448 l-443 -441 -202 201
c-297 294 -255 299 -635 -80 l-283 -281 0 1024 c0 994 1 1026 20 1068 15 33
29 47 62 62 42 19 78 20 1518 20 1440 0 1476 -1 1518 -20 33 -15 47 -29 62
-62 18 -40 20 -68 20 -398 0 -330 2 -358 20 -398 49 -108 231 -108 280 0 18
40 20 68 20 405 0 227 -4 382 -11 415 -38 182 -185 329 -367 367 -81 17 -3029
14 -3099 -3z"/>
<path d="M1643 4146 c-170 -41 -301 -169 -345 -335 -71 -274 91 -544 360 -600
302 -63 582 163 582 469 0 312 -292 540 -597 466z m195 -326 c33 -15 47 -29
62 -62 40 -88 12 -184 -62 -218 -88 -40 -184 -12 -218 62 -40 88 -12 184 62
218 24 11 59 20 78 20 19 0 54 -9 78 -20z"/>
<path d="M4075 3193 c-67 -15 -152 -50 -207 -84 -79 -51 -1739 -1704 -1769
-1762 -12 -23 -53 -204 -104 -457 -93 -463 -93 -463 -31 -517 18 -16 55 -36
81 -43 48 -13 63 -11 475 70 l425 84 853 850 c619 617 866 871 901 922 65 97
92 176 98 296 7 125 -7 200 -59 308 -75 155 -235 286 -399 325 -59 14 -217 19
-264 8z m245 -337 c49 -25 108 -84 132 -131 13 -25 23 -67 26 -111 7 -105 -15
-160 -94 -243 l-63 -66 -208 208 -208 208 66 63 c40 38 84 70 110 80 58 21
190 17 239 -8z m-430 -571 l205 -205 -648 -648 -648 -648 -251 -48 c-138 -26
-252 -45 -255 -43 -2 3 17 116 43 253 l46 249 647 648 c355 356 648 647 651
647 3 0 97 -92 210 -205z"/>
</g>
</svg>
