<?xml version="1.0" standalone="no"?>
<!DOCTYPE svg PUBLIC "-//W3C//DTD SVG 20010904//EN"
 "http://www.w3.org/TR/2001/REC-SVG-20010904/DTD/svg10.dtd">
<svg version="1.0" xmlns="http://www.w3.org/2000/svg"
 width="512.000000pt" height="512.000000pt" viewBox="0 0 512.000000 512.000000"
 preserveAspectRatio="xMidYMid meet">

<g transform="translate(0.000000,512.000000) scale(0.100000,-0.100000)"
fill="#000000" stroke="none">
<path d="M525 5105 c-128 -28 -239 -89 -329 -179 -75 -75 -125 -156 -163 -261
l-28 -80 0 -665 0 -665 28 -80 c73 -206 217 -349 426 -423 l76 -27 665 0 665
0 80 28 c206 73 349 217 423 426 l27 76 0 665 0 665 -27 76 c-74 209 -217 353
-423 426 l-80 28 -640 2 c-504 1 -653 -1 -700 -12z m1357 -338 c72 -35 130
-93 165 -165 l28 -57 0 -625 0 -625 -27 -55 c-35 -71 -97 -133 -167 -168 l-56
-27 -625 0 -625 0 -55 27 c-71 35 -133 97 -168 167 l-27 56 -3 595 c-2 415 0
611 8 647 23 105 116 207 223 245 48 16 97 17 662 15 l610 -2 57 -28z"/>
<path d="M3245 5105 c-128 -28 -239 -89 -329 -179 -75 -75 -125 -156 -163
-261 l-28 -80 0 -665 0 -665 28 -80 c73 -206 217 -349 426 -423 l76 -27 665 0
665 0 80 28 c206 73 349 217 423 426 l27 76 0 665 0 665 -27 76 c-74 209 -217
353 -423 426 l-80 28 -640 2 c-504 1 -653 -1 -700 -12z m1357 -338 c72 -35
130 -93 165 -165 l28 -57 0 -625 0 -625 -27 -55 c-35 -71 -97 -133 -167 -168
l-56 -27 -625 0 -625 0 -55 27 c-71 35 -133 97 -168 167 l-27 56 -3 595 c-2
415 0 611 8 647 23 105 116 207 223 245 48 16 97 17 662 15 l610 -2 57 -28z"/>
<path d="M525 2385 c-128 -28 -239 -89 -329 -179 -75 -75 -125 -156 -163 -261
l-28 -80 0 -665 0 -665 28 -80 c73 -206 217 -349 426 -423 l76 -27 665 0 665
0 80 28 c206 73 349 217 423 426 l27 76 0 665 0 665 -27 76 c-74 209 -217 353
-423 426 l-80 28 -640 2 c-504 1 -653 -1 -700 -12z m1357 -338 c72 -35 130
-93 165 -165 l28 -57 0 -625 0 -625 -27 -55 c-35 -71 -97 -133 -167 -168 l-56
-27 -625 0 -625 0 -55 27 c-71 35 -133 97 -168 167 l-27 56 -3 595 c-2 415 0
611 8 647 23 105 116 207 223 245 48 16 97 17 662 15 l610 -2 57 -28z"/>
<path d="M3800 2395 c-8 -2 -49 -9 -90 -15 -358 -58 -694 -309 -862 -645 -89
-177 -122 -320 -123 -530 0 -163 11 -239 56 -377 97 -300 319 -557 607 -702
85 -43 216 -87 317 -107 103 -21 349 -18 455 5 423 91 768 399 899 804 44 136
56 215 56 372 0 83 -6 175 -14 215 -95 479 -451 849 -921 956 -78 18 -338 35
-380 24z m275 -330 c174 -31 337 -117 465 -245 344 -343 344 -898 1 -1241
-343 -343 -894 -343 -1240 0 -346 343 -346 899 0 1242 208 207 486 294 774
244z"/>
</g>
</svg>
